<?xml version="1.0" encoding="utf-8" standalone="no"?>
<!DOCTYPE svg PUBLIC "-//W3C//DTD SVG 1.1//EN"
  "http://www.w3.org/Graphics/SVG/1.1/DTD/svg11.dtd">
<svg height="808.765371pt" version="1.1" viewBox="0 0 1208.775625 808.765371" width="1208.775625pt" xmlns="http://www.w3.org/2000/svg" xmlns:xlink="http://www.w3.org/1999/xlink">
 <metadata>
  <rdf:RDF xmlns:cc="http://creativecommons.org/ns#" xmlns:dc="http://purl.org/dc/elements/1.1/" xmlns:rdf="http://www.w3.org/1999/02/22-rdf-syntax-ns#">
   <cc:Work>
    <dc:type rdf:resource="http://purl.org/dc/dcmitype/StillImage"/>
    <dc:date>2021-10-19T01:35:14.440566</dc:date>
    <dc:format>image/svg+xml</dc:format>
    <dc:creator>
     <cc:Agent>
      <dc:title>Matplotlib v3.4.2, https://matplotlib.org/</dc:title>
     </cc:Agent>
    </dc:creator>
   </cc:Work>
  </rdf:RDF>
 </metadata>
 <defs>
  <style type="text/css">*{stroke-linecap:butt;stroke-linejoin:round;}</style>
 </defs>
 <g id="figure_1">
  <g id="patch_1">
   <path d="M 0 808.765371 
L 1208.775625 808.765371 
L 1208.775625 0 
L 0 0 
z
" style="fill:#ffffff;"/>
  </g>
  <g id="axes_1">
   <g id="patch_2">
    <path d="M 130.215625 639.825437 
L 617.197443 639.825437 
L 617.197443 41.073437 
L 130.215625 41.073437 
z
" style="fill:#ffffff;"/>
   </g>
   <g id="patch_3">
    <path clip-path="url(#p741c5e5acb)" d="M 152.351162 639.825437 
L 185.144551 639.825437 
L 185.144551 78.782857 
L 152.351162 78.782857 
z
" style="fill:url(#h393e37d471);"/>
   </g>
   <g id="patch_4">
    <path clip-path="url(#p741c5e5acb)" d="M 316.318104 639.825437 
L 349.111493 639.825437 
L 349.111493 69.585437 
L 316.318104 69.585437 
z
" style="fill:url(#h393e37d471);"/>
   </g>
   <g id="patch_5">
    <path clip-path="url(#p741c5e5acb)" d="M 480.285046 639.825437 
L 513.078435 639.825437 
L 513.078435 69.585437 
L 480.285046 69.585437 
z
" style="fill:url(#h393e37d471);"/>
   </g>
   <g id="patch_6">
    <path clip-path="url(#p741c5e5acb)" d="M 193.342898 639.825437 
L 226.136286 639.825437 
L 226.136286 557.048663 
L 193.342898 557.048663 
z
" style="fill:url(#hd7656a5978);"/>
   </g>
   <g id="patch_7">
    <path clip-path="url(#p741c5e5acb)" d="M 357.30984 639.825437 
L 390.103228 639.825437 
L 390.103228 557.048663 
L 357.30984 557.048663 
z
" style="fill:url(#hd7656a5978);"/>
   </g>
   <g id="patch_8">
    <path clip-path="url(#p741c5e5acb)" d="M 521.276782 639.825437 
L 554.07017 639.825437 
L 554.07017 584.640921 
L 521.276782 584.640921 
z
" style="fill:url(#hd7656a5978);"/>
   </g>
   <g id="patch_9">
    <path clip-path="url(#p741c5e5acb)" d="M 234.334633 639.825437 
L 267.128022 639.825437 
L 267.128022 566.246083 
L 234.334633 566.246083 
z
" style="fill:url(#h483eb80a30);"/>
   </g>
   <g id="patch_10">
    <path clip-path="url(#p741c5e5acb)" d="M 398.301575 639.825437 
L 431.094964 639.825437 
L 431.094964 575.443502 
L 398.301575 575.443502 
z
" style="fill:url(#h483eb80a30);"/>
   </g>
   <g id="patch_11">
    <path clip-path="url(#p741c5e5acb)" d="M 562.268518 639.825437 
L 595.061906 639.825437 
L 595.061906 584.640921 
L 562.268518 584.640921 
z
" style="fill:url(#h483eb80a30);"/>
   </g>
   <g id="matplotlib.axis_1">
    <g id="xtick_1">
     <g id="line2d_1">
      <defs>
       <path d="M 0 0 
L 0 3.5 
" id="m4b1d7c3558" style="stroke:#000000;stroke-width:0.8;"/>
      </defs>
      <g>
       <use style="stroke:#000000;stroke-width:0.8;" x="196.07568" xlink:href="#m4b1d7c3558" y="639.825437"/>
      </g>
     </g>
     <g id="text_1">
      <!-- Personal -->
      <g transform="translate(150.309851 770.820479)rotate(-45)scale(0.35 -0.35)">
       <defs>
        <path d="M 1259 4147 
L 1259 2394 
L 2053 2394 
Q 2494 2394 2734 2622 
Q 2975 2850 2975 3272 
Q 2975 3691 2734 3919 
Q 2494 4147 2053 4147 
L 1259 4147 
z
M 628 4666 
L 2053 4666 
Q 2838 4666 3239 4311 
Q 3641 3956 3641 3272 
Q 3641 2581 3239 2228 
Q 2838 1875 2053 1875 
L 1259 1875 
L 1259 0 
L 628 0 
L 628 4666 
z
" id="DejaVuSans-50" transform="scale(0.015625)"/>
        <path d="M 3597 1894 
L 3597 1613 
L 953 1613 
Q 991 1019 1311 708 
Q 1631 397 2203 397 
Q 2534 397 2845 478 
Q 3156 559 3463 722 
L 3463 178 
Q 3153 47 2828 -22 
Q 2503 -91 2169 -91 
Q 1331 -91 842 396 
Q 353 884 353 1716 
Q 353 2575 817 3079 
Q 1281 3584 2069 3584 
Q 2775 3584 3186 3129 
Q 3597 2675 3597 1894 
z
M 3022 2063 
Q 3016 2534 2758 2815 
Q 2500 3097 2075 3097 
Q 1594 3097 1305 2825 
Q 1016 2553 972 2059 
L 3022 2063 
z
" id="DejaVuSans-65" transform="scale(0.015625)"/>
        <path d="M 2631 2963 
Q 2534 3019 2420 3045 
Q 2306 3072 2169 3072 
Q 1681 3072 1420 2755 
Q 1159 2438 1159 1844 
L 1159 0 
L 581 0 
L 581 3500 
L 1159 3500 
L 1159 2956 
Q 1341 3275 1631 3429 
Q 1922 3584 2338 3584 
Q 2397 3584 2469 3576 
Q 2541 3569 2628 3553 
L 2631 2963 
z
" id="DejaVuSans-72" transform="scale(0.015625)"/>
        <path d="M 2834 3397 
L 2834 2853 
Q 2591 2978 2328 3040 
Q 2066 3103 1784 3103 
Q 1356 3103 1142 2972 
Q 928 2841 928 2578 
Q 928 2378 1081 2264 
Q 1234 2150 1697 2047 
L 1894 2003 
Q 2506 1872 2764 1633 
Q 3022 1394 3022 966 
Q 3022 478 2636 193 
Q 2250 -91 1575 -91 
Q 1294 -91 989 -36 
Q 684 19 347 128 
L 347 722 
Q 666 556 975 473 
Q 1284 391 1588 391 
Q 1994 391 2212 530 
Q 2431 669 2431 922 
Q 2431 1156 2273 1281 
Q 2116 1406 1581 1522 
L 1381 1569 
Q 847 1681 609 1914 
Q 372 2147 372 2553 
Q 372 3047 722 3315 
Q 1072 3584 1716 3584 
Q 2034 3584 2315 3537 
Q 2597 3491 2834 3397 
z
" id="DejaVuSans-73" transform="scale(0.015625)"/>
        <path d="M 1959 3097 
Q 1497 3097 1228 2736 
Q 959 2375 959 1747 
Q 959 1119 1226 758 
Q 1494 397 1959 397 
Q 2419 397 2687 759 
Q 2956 1122 2956 1747 
Q 2956 2369 2687 2733 
Q 2419 3097 1959 3097 
z
M 1959 3584 
Q 2709 3584 3137 3096 
Q 3566 2609 3566 1747 
Q 3566 888 3137 398 
Q 2709 -91 1959 -91 
Q 1206 -91 779 398 
Q 353 888 353 1747 
Q 353 2609 779 3096 
Q 1206 3584 1959 3584 
z
" id="DejaVuSans-6f" transform="scale(0.015625)"/>
        <path d="M 3513 2113 
L 3513 0 
L 2938 0 
L 2938 2094 
Q 2938 2591 2744 2837 
Q 2550 3084 2163 3084 
Q 1697 3084 1428 2787 
Q 1159 2491 1159 1978 
L 1159 0 
L 581 0 
L 581 3500 
L 1159 3500 
L 1159 2956 
Q 1366 3272 1645 3428 
Q 1925 3584 2291 3584 
Q 2894 3584 3203 3211 
Q 3513 2838 3513 2113 
z
" id="DejaVuSans-6e" transform="scale(0.015625)"/>
        <path d="M 2194 1759 
Q 1497 1759 1228 1600 
Q 959 1441 959 1056 
Q 959 750 1161 570 
Q 1363 391 1709 391 
Q 2188 391 2477 730 
Q 2766 1069 2766 1631 
L 2766 1759 
L 2194 1759 
z
M 3341 1997 
L 3341 0 
L 2766 0 
L 2766 531 
Q 2569 213 2275 61 
Q 1981 -91 1556 -91 
Q 1019 -91 701 211 
Q 384 513 384 1019 
Q 384 1609 779 1909 
Q 1175 2209 1959 2209 
L 2766 2209 
L 2766 2266 
Q 2766 2663 2505 2880 
Q 2244 3097 1772 3097 
Q 1472 3097 1187 3025 
Q 903 2953 641 2809 
L 641 3341 
Q 956 3463 1253 3523 
Q 1550 3584 1831 3584 
Q 2591 3584 2966 3190 
Q 3341 2797 3341 1997 
z
" id="DejaVuSans-61" transform="scale(0.015625)"/>
        <path d="M 603 4863 
L 1178 4863 
L 1178 0 
L 603 0 
L 603 4863 
z
" id="DejaVuSans-6c" transform="scale(0.015625)"/>
       </defs>
       <use xlink:href="#DejaVuSans-50"/>
       <use x="56.677734" xlink:href="#DejaVuSans-65"/>
       <use x="118.201172" xlink:href="#DejaVuSans-72"/>
       <use x="159.314453" xlink:href="#DejaVuSans-73"/>
       <use x="211.414062" xlink:href="#DejaVuSans-6f"/>
       <use x="272.595703" xlink:href="#DejaVuSans-6e"/>
       <use x="335.974609" xlink:href="#DejaVuSans-61"/>
       <use x="397.253906" xlink:href="#DejaVuSans-6c"/>
      </g>
     </g>
    </g>
    <g id="xtick_2">
     <g id="line2d_2">
      <g>
       <use style="stroke:#000000;stroke-width:0.8;" x="360.042622" xlink:href="#m4b1d7c3558" y="639.825437"/>
      </g>
     </g>
     <g id="text_2">
      <!-- Tx from -->
      <g transform="translate(305.410558 760.839777)rotate(-45)scale(0.35 -0.35)">
       <defs>
        <path d="M -19 4666 
L 3928 4666 
L 3928 4134 
L 2272 4134 
L 2272 0 
L 1638 0 
L 1638 4134 
L -19 4134 
L -19 4666 
z
" id="DejaVuSans-54" transform="scale(0.015625)"/>
        <path d="M 3513 3500 
L 2247 1797 
L 3578 0 
L 2900 0 
L 1881 1375 
L 863 0 
L 184 0 
L 1544 1831 
L 300 3500 
L 978 3500 
L 1906 2253 
L 2834 3500 
L 3513 3500 
z
" id="DejaVuSans-78" transform="scale(0.015625)"/>
        <path id="DejaVuSans-20" transform="scale(0.015625)"/>
        <path d="M 2375 4863 
L 2375 4384 
L 1825 4384 
Q 1516 4384 1395 4259 
Q 1275 4134 1275 3809 
L 1275 3500 
L 2222 3500 
L 2222 3053 
L 1275 3053 
L 1275 0 
L 697 0 
L 697 3053 
L 147 3053 
L 147 3500 
L 697 3500 
L 697 3744 
Q 697 4328 969 4595 
Q 1241 4863 1831 4863 
L 2375 4863 
z
" id="DejaVuSans-66" transform="scale(0.015625)"/>
        <path d="M 3328 2828 
Q 3544 3216 3844 3400 
Q 4144 3584 4550 3584 
Q 5097 3584 5394 3201 
Q 5691 2819 5691 2113 
L 5691 0 
L 5113 0 
L 5113 2094 
Q 5113 2597 4934 2840 
Q 4756 3084 4391 3084 
Q 3944 3084 3684 2787 
Q 3425 2491 3425 1978 
L 3425 0 
L 2847 0 
L 2847 2094 
Q 2847 2600 2669 2842 
Q 2491 3084 2119 3084 
Q 1678 3084 1418 2786 
Q 1159 2488 1159 1978 
L 1159 0 
L 581 0 
L 581 3500 
L 1159 3500 
L 1159 2956 
Q 1356 3278 1631 3431 
Q 1906 3584 2284 3584 
Q 2666 3584 2933 3390 
Q 3200 3197 3328 2828 
z
" id="DejaVuSans-6d" transform="scale(0.015625)"/>
       </defs>
       <use xlink:href="#DejaVuSans-54"/>
       <use x="61.083984" xlink:href="#DejaVuSans-78"/>
       <use x="120.263672" xlink:href="#DejaVuSans-20"/>
       <use x="152.050781" xlink:href="#DejaVuSans-66"/>
       <use x="187.255859" xlink:href="#DejaVuSans-72"/>
       <use x="226.119141" xlink:href="#DejaVuSans-6f"/>
       <use x="287.300781" xlink:href="#DejaVuSans-6d"/>
      </g>
      <!--  person -->
      <g transform="translate(334.378568 787.298111)rotate(-45)scale(0.35 -0.35)">
       <defs>
        <path d="M 1159 525 
L 1159 -1331 
L 581 -1331 
L 581 3500 
L 1159 3500 
L 1159 2969 
Q 1341 3281 1617 3432 
Q 1894 3584 2278 3584 
Q 2916 3584 3314 3078 
Q 3713 2572 3713 1747 
Q 3713 922 3314 415 
Q 2916 -91 2278 -91 
Q 1894 -91 1617 61 
Q 1341 213 1159 525 
z
M 3116 1747 
Q 3116 2381 2855 2742 
Q 2594 3103 2138 3103 
Q 1681 3103 1420 2742 
Q 1159 2381 1159 1747 
Q 1159 1113 1420 752 
Q 1681 391 2138 391 
Q 2594 391 2855 752 
Q 3116 1113 3116 1747 
z
" id="DejaVuSans-70" transform="scale(0.015625)"/>
       </defs>
       <use xlink:href="#DejaVuSans-20"/>
       <use x="31.787109" xlink:href="#DejaVuSans-70"/>
       <use x="95.263672" xlink:href="#DejaVuSans-65"/>
       <use x="156.787109" xlink:href="#DejaVuSans-72"/>
       <use x="197.900391" xlink:href="#DejaVuSans-73"/>
       <use x="250" xlink:href="#DejaVuSans-6f"/>
       <use x="311.181641" xlink:href="#DejaVuSans-6e"/>
      </g>
     </g>
    </g>
    <g id="xtick_3">
     <g id="line2d_3">
      <g>
       <use style="stroke:#000000;stroke-width:0.8;" x="524.009564" xlink:href="#m4b1d7c3558" y="639.825437"/>
      </g>
     </g>
     <g id="text_3">
      <!-- Tx from  -->
      <g transform="translate(465.444771 768.705235)rotate(-45)scale(0.35 -0.35)">
       <use xlink:href="#DejaVuSans-54"/>
       <use x="61.083984" xlink:href="#DejaVuSans-78"/>
       <use x="120.263672" xlink:href="#DejaVuSans-20"/>
       <use x="152.050781" xlink:href="#DejaVuSans-66"/>
       <use x="187.255859" xlink:href="#DejaVuSans-72"/>
       <use x="226.119141" xlink:href="#DejaVuSans-6f"/>
       <use x="287.300781" xlink:href="#DejaVuSans-6d"/>
       <use x="384.712891" xlink:href="#DejaVuSans-20"/>
      </g>
      <!--  MTL -->
      <g transform="translate(515.63289 773.94346)rotate(-45)scale(0.35 -0.35)">
       <defs>
        <path d="M 628 4666 
L 1569 4666 
L 2759 1491 
L 3956 4666 
L 4897 4666 
L 4897 0 
L 4281 0 
L 4281 4097 
L 3078 897 
L 2444 897 
L 1241 4097 
L 1241 0 
L 628 0 
L 628 4666 
z
" id="DejaVuSans-4d" transform="scale(0.015625)"/>
        <path d="M 628 4666 
L 1259 4666 
L 1259 531 
L 3531 531 
L 3531 0 
L 628 0 
L 628 4666 
z
" id="DejaVuSans-4c" transform="scale(0.015625)"/>
       </defs>
       <use xlink:href="#DejaVuSans-20"/>
       <use x="31.787109" xlink:href="#DejaVuSans-4d"/>
       <use x="118.066406" xlink:href="#DejaVuSans-54"/>
       <use x="179.150391" xlink:href="#DejaVuSans-4c"/>
      </g>
     </g>
    </g>
   </g>
   <g id="matplotlib.axis_2">
    <g id="ytick_1">
     <g id="line2d_4">
      <defs>
       <path d="M 0 0 
L -3.5 0 
" id="m56b27bc543" style="stroke:#000000;stroke-width:0.8;"/>
      </defs>
      <g>
       <use style="stroke:#000000;stroke-width:0.8;" x="130.215625" xlink:href="#m56b27bc543" y="639.825437"/>
      </g>
     </g>
     <g id="text_4">
      <!-- 0 -->
      <g transform="translate(91.403125 658.821531)scale(0.5 -0.5)">
       <defs>
        <path d="M 2034 4250 
Q 1547 4250 1301 3770 
Q 1056 3291 1056 2328 
Q 1056 1369 1301 889 
Q 1547 409 2034 409 
Q 2525 409 2770 889 
Q 3016 1369 3016 2328 
Q 3016 3291 2770 3770 
Q 2525 4250 2034 4250 
z
M 2034 4750 
Q 2819 4750 3233 4129 
Q 3647 3509 3647 2328 
Q 3647 1150 3233 529 
Q 2819 -91 2034 -91 
Q 1250 -91 836 529 
Q 422 1150 422 2328 
Q 422 3509 836 4129 
Q 1250 4750 2034 4750 
z
" id="DejaVuSans-30" transform="scale(0.015625)"/>
       </defs>
       <use xlink:href="#DejaVuSans-30"/>
      </g>
     </g>
    </g>
    <g id="ytick_2">
     <g id="line2d_5">
      <g>
       <use style="stroke:#000000;stroke-width:0.8;" x="130.215625" xlink:href="#m56b27bc543" y="512.90105"/>
      </g>
     </g>
     <g id="text_5">
      <!-- 20 -->
      <g transform="translate(59.590625 531.897144)scale(0.5 -0.5)">
       <defs>
        <path d="M 1228 531 
L 3431 531 
L 3431 0 
L 469 0 
L 469 531 
Q 828 903 1448 1529 
Q 2069 2156 2228 2338 
Q 2531 2678 2651 2914 
Q 2772 3150 2772 3378 
Q 2772 3750 2511 3984 
Q 2250 4219 1831 4219 
Q 1534 4219 1204 4116 
Q 875 4013 500 3803 
L 500 4441 
Q 881 4594 1212 4672 
Q 1544 4750 1819 4750 
Q 2544 4750 2975 4387 
Q 3406 4025 3406 3419 
Q 3406 3131 3298 2873 
Q 3191 2616 2906 2266 
Q 2828 2175 2409 1742 
Q 1991 1309 1228 531 
z
" id="DejaVuSans-32" transform="scale(0.015625)"/>
       </defs>
       <use xlink:href="#DejaVuSans-32"/>
       <use x="63.623047" xlink:href="#DejaVuSans-30"/>
      </g>
     </g>
    </g>
    <g id="ytick_3">
     <g id="line2d_6">
      <g>
       <use style="stroke:#000000;stroke-width:0.8;" x="130.215625" xlink:href="#m56b27bc543" y="385.976663"/>
      </g>
     </g>
     <g id="text_6">
      <!-- 40 -->
      <g transform="translate(59.590625 404.972757)scale(0.5 -0.5)">
       <defs>
        <path d="M 2419 4116 
L 825 1625 
L 2419 1625 
L 2419 4116 
z
M 2253 4666 
L 3047 4666 
L 3047 1625 
L 3713 1625 
L 3713 1100 
L 3047 1100 
L 3047 0 
L 2419 0 
L 2419 1100 
L 313 1100 
L 313 1709 
L 2253 4666 
z
" id="DejaVuSans-34" transform="scale(0.015625)"/>
       </defs>
       <use xlink:href="#DejaVuSans-34"/>
       <use x="63.623047" xlink:href="#DejaVuSans-30"/>
      </g>
     </g>
    </g>
    <g id="ytick_4">
     <g id="line2d_7">
      <g>
       <use style="stroke:#000000;stroke-width:0.8;" x="130.215625" xlink:href="#m56b27bc543" y="259.052276"/>
      </g>
     </g>
     <g id="text_7">
      <!-- 60 -->
      <g transform="translate(59.590625 278.04837)scale(0.5 -0.5)">
       <defs>
        <path d="M 2113 2584 
Q 1688 2584 1439 2293 
Q 1191 2003 1191 1497 
Q 1191 994 1439 701 
Q 1688 409 2113 409 
Q 2538 409 2786 701 
Q 3034 994 3034 1497 
Q 3034 2003 2786 2293 
Q 2538 2584 2113 2584 
z
M 3366 4563 
L 3366 3988 
Q 3128 4100 2886 4159 
Q 2644 4219 2406 4219 
Q 1781 4219 1451 3797 
Q 1122 3375 1075 2522 
Q 1259 2794 1537 2939 
Q 1816 3084 2150 3084 
Q 2853 3084 3261 2657 
Q 3669 2231 3669 1497 
Q 3669 778 3244 343 
Q 2819 -91 2113 -91 
Q 1303 -91 875 529 
Q 447 1150 447 2328 
Q 447 3434 972 4092 
Q 1497 4750 2381 4750 
Q 2619 4750 2861 4703 
Q 3103 4656 3366 4563 
z
" id="DejaVuSans-36" transform="scale(0.015625)"/>
       </defs>
       <use xlink:href="#DejaVuSans-36"/>
       <use x="63.623047" xlink:href="#DejaVuSans-30"/>
      </g>
     </g>
    </g>
    <g id="ytick_5">
     <g id="line2d_8">
      <g>
       <use style="stroke:#000000;stroke-width:0.8;" x="130.215625" xlink:href="#m56b27bc543" y="132.127889"/>
      </g>
     </g>
     <g id="text_8">
      <!-- 80 -->
      <g transform="translate(59.590625 151.123983)scale(0.5 -0.5)">
       <defs>
        <path d="M 2034 2216 
Q 1584 2216 1326 1975 
Q 1069 1734 1069 1313 
Q 1069 891 1326 650 
Q 1584 409 2034 409 
Q 2484 409 2743 651 
Q 3003 894 3003 1313 
Q 3003 1734 2745 1975 
Q 2488 2216 2034 2216 
z
M 1403 2484 
Q 997 2584 770 2862 
Q 544 3141 544 3541 
Q 544 4100 942 4425 
Q 1341 4750 2034 4750 
Q 2731 4750 3128 4425 
Q 3525 4100 3525 3541 
Q 3525 3141 3298 2862 
Q 3072 2584 2669 2484 
Q 3125 2378 3379 2068 
Q 3634 1759 3634 1313 
Q 3634 634 3220 271 
Q 2806 -91 2034 -91 
Q 1263 -91 848 271 
Q 434 634 434 1313 
Q 434 1759 690 2068 
Q 947 2378 1403 2484 
z
M 1172 3481 
Q 1172 3119 1398 2916 
Q 1625 2713 2034 2713 
Q 2441 2713 2670 2916 
Q 2900 3119 2900 3481 
Q 2900 3844 2670 4047 
Q 2441 4250 2034 4250 
Q 1625 4250 1398 4047 
Q 1172 3844 1172 3481 
z
" id="DejaVuSans-38" transform="scale(0.015625)"/>
       </defs>
       <use xlink:href="#DejaVuSans-38"/>
       <use x="63.623047" xlink:href="#DejaVuSans-30"/>
      </g>
     </g>
    </g>
    <g id="text_9">
     <!-- Percentage -->
     <g transform="translate(44.801563 501.304906)rotate(-90)scale(0.5 -0.5)">
      <defs>
       <path d="M 588 4666 
L 2584 4666 
Q 3475 4666 3951 4270 
Q 4428 3875 4428 3144 
Q 4428 2409 3951 2014 
Q 3475 1619 2584 1619 
L 1791 1619 
L 1791 0 
L 588 0 
L 588 4666 
z
M 1791 3794 
L 1791 2491 
L 2456 2491 
Q 2806 2491 2997 2661 
Q 3188 2831 3188 3144 
Q 3188 3456 2997 3625 
Q 2806 3794 2456 3794 
L 1791 3794 
z
" id="DejaVuSans-Bold-50" transform="scale(0.015625)"/>
       <path d="M 4031 1759 
L 4031 1441 
L 1416 1441 
Q 1456 1047 1700 850 
Q 1944 653 2381 653 
Q 2734 653 3104 758 
Q 3475 863 3866 1075 
L 3866 213 
Q 3469 63 3072 -14 
Q 2675 -91 2278 -91 
Q 1328 -91 801 392 
Q 275 875 275 1747 
Q 275 2603 792 3093 
Q 1309 3584 2216 3584 
Q 3041 3584 3536 3087 
Q 4031 2591 4031 1759 
z
M 2881 2131 
Q 2881 2450 2695 2645 
Q 2509 2841 2209 2841 
Q 1884 2841 1681 2658 
Q 1478 2475 1428 2131 
L 2881 2131 
z
" id="DejaVuSans-Bold-65" transform="scale(0.015625)"/>
       <path d="M 3138 2547 
Q 2991 2616 2845 2648 
Q 2700 2681 2553 2681 
Q 2122 2681 1889 2404 
Q 1656 2128 1656 1613 
L 1656 0 
L 538 0 
L 538 3500 
L 1656 3500 
L 1656 2925 
Q 1872 3269 2151 3426 
Q 2431 3584 2822 3584 
Q 2878 3584 2943 3579 
Q 3009 3575 3134 3559 
L 3138 2547 
z
" id="DejaVuSans-Bold-72" transform="scale(0.015625)"/>
       <path d="M 3366 3391 
L 3366 2478 
Q 3138 2634 2908 2709 
Q 2678 2784 2431 2784 
Q 1963 2784 1702 2511 
Q 1441 2238 1441 1747 
Q 1441 1256 1702 982 
Q 1963 709 2431 709 
Q 2694 709 2930 787 
Q 3166 866 3366 1019 
L 3366 103 
Q 3103 6 2833 -42 
Q 2563 -91 2291 -91 
Q 1344 -91 809 395 
Q 275 881 275 1747 
Q 275 2613 809 3098 
Q 1344 3584 2291 3584 
Q 2566 3584 2833 3536 
Q 3100 3488 3366 3391 
z
" id="DejaVuSans-Bold-63" transform="scale(0.015625)"/>
       <path d="M 4056 2131 
L 4056 0 
L 2931 0 
L 2931 347 
L 2931 1631 
Q 2931 2084 2911 2256 
Q 2891 2428 2841 2509 
Q 2775 2619 2662 2680 
Q 2550 2741 2406 2741 
Q 2056 2741 1856 2470 
Q 1656 2200 1656 1722 
L 1656 0 
L 538 0 
L 538 3500 
L 1656 3500 
L 1656 2988 
Q 1909 3294 2193 3439 
Q 2478 3584 2822 3584 
Q 3428 3584 3742 3212 
Q 4056 2841 4056 2131 
z
" id="DejaVuSans-Bold-6e" transform="scale(0.015625)"/>
       <path d="M 1759 4494 
L 1759 3500 
L 2913 3500 
L 2913 2700 
L 1759 2700 
L 1759 1216 
Q 1759 972 1856 886 
Q 1953 800 2241 800 
L 2816 800 
L 2816 0 
L 1856 0 
Q 1194 0 917 276 
Q 641 553 641 1216 
L 641 2700 
L 84 2700 
L 84 3500 
L 641 3500 
L 641 4494 
L 1759 4494 
z
" id="DejaVuSans-Bold-74" transform="scale(0.015625)"/>
       <path d="M 2106 1575 
Q 1756 1575 1579 1456 
Q 1403 1338 1403 1106 
Q 1403 894 1545 773 
Q 1688 653 1941 653 
Q 2256 653 2472 879 
Q 2688 1106 2688 1447 
L 2688 1575 
L 2106 1575 
z
M 3816 1997 
L 3816 0 
L 2688 0 
L 2688 519 
Q 2463 200 2181 54 
Q 1900 -91 1497 -91 
Q 953 -91 614 226 
Q 275 544 275 1050 
Q 275 1666 698 1953 
Q 1122 2241 2028 2241 
L 2688 2241 
L 2688 2328 
Q 2688 2594 2478 2717 
Q 2269 2841 1825 2841 
Q 1466 2841 1156 2769 
Q 847 2697 581 2553 
L 581 3406 
Q 941 3494 1303 3539 
Q 1666 3584 2028 3584 
Q 2975 3584 3395 3211 
Q 3816 2838 3816 1997 
z
" id="DejaVuSans-Bold-61" transform="scale(0.015625)"/>
       <path d="M 2919 594 
Q 2688 288 2409 144 
Q 2131 0 1766 0 
Q 1125 0 706 504 
Q 288 1009 288 1791 
Q 288 2575 706 3076 
Q 1125 3578 1766 3578 
Q 2131 3578 2409 3434 
Q 2688 3291 2919 2981 
L 2919 3500 
L 4044 3500 
L 4044 353 
Q 4044 -491 3511 -936 
Q 2978 -1381 1966 -1381 
Q 1638 -1381 1331 -1331 
Q 1025 -1281 716 -1178 
L 716 -306 
Q 1009 -475 1290 -558 
Q 1572 -641 1856 -641 
Q 2406 -641 2662 -400 
Q 2919 -159 2919 353 
L 2919 594 
z
M 2181 2772 
Q 1834 2772 1640 2515 
Q 1447 2259 1447 1791 
Q 1447 1309 1634 1061 
Q 1822 813 2181 813 
Q 2531 813 2725 1069 
Q 2919 1325 2919 1791 
Q 2919 2259 2725 2515 
Q 2531 2772 2181 2772 
z
" id="DejaVuSans-Bold-67" transform="scale(0.015625)"/>
      </defs>
      <use xlink:href="#DejaVuSans-Bold-50"/>
      <use x="73.291016" xlink:href="#DejaVuSans-Bold-65"/>
      <use x="141.113281" xlink:href="#DejaVuSans-Bold-72"/>
      <use x="190.429688" xlink:href="#DejaVuSans-Bold-63"/>
      <use x="249.707031" xlink:href="#DejaVuSans-Bold-65"/>
      <use x="317.529297" xlink:href="#DejaVuSans-Bold-6e"/>
      <use x="388.720703" xlink:href="#DejaVuSans-Bold-74"/>
      <use x="436.523438" xlink:href="#DejaVuSans-Bold-61"/>
      <use x="504.003906" xlink:href="#DejaVuSans-Bold-67"/>
      <use x="575.585938" xlink:href="#DejaVuSans-Bold-65"/>
     </g>
    </g>
   </g>
   <g id="patch_12">
    <path d="M 130.215625 639.825437 
L 130.215625 41.073437 
" style="fill:none;stroke:#000000;stroke-linecap:square;stroke-linejoin:miter;stroke-width:0.8;"/>
   </g>
   <g id="patch_13">
    <path d="M 617.197443 639.825437 
L 617.197443 41.073437 
" style="fill:none;stroke:#000000;stroke-linecap:square;stroke-linejoin:miter;stroke-width:0.8;"/>
   </g>
   <g id="patch_14">
    <path d="M 130.215625 639.825437 
L 617.197443 639.825437 
" style="fill:none;stroke:#000000;stroke-linecap:square;stroke-linejoin:miter;stroke-width:0.8;"/>
   </g>
   <g id="patch_15">
    <path d="M 130.215625 41.073437 
L 617.197443 41.073437 
" style="fill:none;stroke:#000000;stroke-linecap:square;stroke-linejoin:miter;stroke-width:0.8;"/>
   </g>
   <g id="text_10">
    <!-- (a) MPSC-rPPG dataset -->
    <g transform="translate(146.564737 33.794531)scale(0.35 -0.35)">
     <defs>
      <path d="M 2413 -844 
L 1484 -844 
Q 1006 -72 778 623 
Q 550 1319 550 2003 
Q 550 2688 779 3389 
Q 1009 4091 1484 4856 
L 2413 4856 
Q 2013 4116 1813 3408 
Q 1613 2700 1613 2009 
Q 1613 1319 1811 609 
Q 2009 -100 2413 -844 
z
" id="DejaVuSans-Bold-28" transform="scale(0.015625)"/>
      <path d="M 513 -844 
Q 913 -100 1113 609 
Q 1313 1319 1313 2009 
Q 1313 2700 1113 3408 
Q 913 4116 513 4856 
L 1441 4856 
Q 1916 4091 2145 3389 
Q 2375 2688 2375 2003 
Q 2375 1319 2147 623 
Q 1919 -72 1441 -844 
L 513 -844 
z
" id="DejaVuSans-Bold-29" transform="scale(0.015625)"/>
      <path id="DejaVuSans-Bold-20" transform="scale(0.015625)"/>
      <path d="M 588 4666 
L 2119 4666 
L 3181 2169 
L 4250 4666 
L 5778 4666 
L 5778 0 
L 4641 0 
L 4641 3413 
L 3566 897 
L 2803 897 
L 1728 3413 
L 1728 0 
L 588 0 
L 588 4666 
z
" id="DejaVuSans-Bold-4d" transform="scale(0.015625)"/>
      <path d="M 3834 4519 
L 3834 3531 
Q 3450 3703 3084 3790 
Q 2719 3878 2394 3878 
Q 1963 3878 1756 3759 
Q 1550 3641 1550 3391 
Q 1550 3203 1689 3098 
Q 1828 2994 2194 2919 
L 2706 2816 
Q 3484 2659 3812 2340 
Q 4141 2022 4141 1434 
Q 4141 663 3683 286 
Q 3225 -91 2284 -91 
Q 1841 -91 1394 -6 
Q 947 78 500 244 
L 500 1259 
Q 947 1022 1364 901 
Q 1781 781 2169 781 
Q 2563 781 2772 912 
Q 2981 1044 2981 1288 
Q 2981 1506 2839 1625 
Q 2697 1744 2272 1838 
L 1806 1941 
Q 1106 2091 782 2419 
Q 459 2747 459 3303 
Q 459 4000 909 4375 
Q 1359 4750 2203 4750 
Q 2588 4750 2994 4692 
Q 3400 4634 3834 4519 
z
" id="DejaVuSans-Bold-53" transform="scale(0.015625)"/>
      <path d="M 4288 256 
Q 3956 84 3597 -3 
Q 3238 -91 2847 -91 
Q 1681 -91 1000 561 
Q 319 1213 319 2328 
Q 319 3447 1000 4098 
Q 1681 4750 2847 4750 
Q 3238 4750 3597 4662 
Q 3956 4575 4288 4403 
L 4288 3438 
Q 3953 3666 3628 3772 
Q 3303 3878 2944 3878 
Q 2300 3878 1931 3465 
Q 1563 3053 1563 2328 
Q 1563 1606 1931 1193 
Q 2300 781 2944 781 
Q 3303 781 3628 887 
Q 3953 994 4288 1222 
L 4288 256 
z
" id="DejaVuSans-Bold-43" transform="scale(0.015625)"/>
      <path d="M 347 2297 
L 2309 2297 
L 2309 1388 
L 347 1388 
L 347 2297 
z
" id="DejaVuSans-Bold-2d" transform="scale(0.015625)"/>
      <path d="M 4781 347 
Q 4331 128 3847 18 
Q 3363 -91 2847 -91 
Q 1681 -91 1000 561 
Q 319 1213 319 2328 
Q 319 3456 1012 4103 
Q 1706 4750 2913 4750 
Q 3378 4750 3804 4662 
Q 4231 4575 4609 4403 
L 4609 3438 
Q 4219 3659 3833 3768 
Q 3447 3878 3059 3878 
Q 2341 3878 1952 3476 
Q 1563 3075 1563 2328 
Q 1563 1588 1938 1184 
Q 2313 781 3003 781 
Q 3191 781 3352 804 
Q 3513 828 3641 878 
L 3641 1784 
L 2906 1784 
L 2906 2591 
L 4781 2591 
L 4781 347 
z
" id="DejaVuSans-Bold-47" transform="scale(0.015625)"/>
      <path d="M 2919 2988 
L 2919 4863 
L 4044 4863 
L 4044 0 
L 2919 0 
L 2919 506 
Q 2688 197 2409 53 
Q 2131 -91 1766 -91 
Q 1119 -91 703 423 
Q 288 938 288 1747 
Q 288 2556 703 3070 
Q 1119 3584 1766 3584 
Q 2128 3584 2408 3439 
Q 2688 3294 2919 2988 
z
M 2181 722 
Q 2541 722 2730 984 
Q 2919 1247 2919 1747 
Q 2919 2247 2730 2509 
Q 2541 2772 2181 2772 
Q 1825 2772 1636 2509 
Q 1447 2247 1447 1747 
Q 1447 1247 1636 984 
Q 1825 722 2181 722 
z
" id="DejaVuSans-Bold-64" transform="scale(0.015625)"/>
      <path d="M 3272 3391 
L 3272 2541 
Q 2913 2691 2578 2766 
Q 2244 2841 1947 2841 
Q 1628 2841 1473 2761 
Q 1319 2681 1319 2516 
Q 1319 2381 1436 2309 
Q 1553 2238 1856 2203 
L 2053 2175 
Q 2913 2066 3209 1816 
Q 3506 1566 3506 1031 
Q 3506 472 3093 190 
Q 2681 -91 1863 -91 
Q 1516 -91 1145 -36 
Q 775 19 384 128 
L 384 978 
Q 719 816 1070 734 
Q 1422 653 1784 653 
Q 2113 653 2278 743 
Q 2444 834 2444 1013 
Q 2444 1163 2330 1236 
Q 2216 1309 1875 1350 
L 1678 1375 
Q 931 1469 631 1722 
Q 331 1975 331 2491 
Q 331 3047 712 3315 
Q 1094 3584 1881 3584 
Q 2191 3584 2531 3537 
Q 2872 3491 3272 3391 
z
" id="DejaVuSans-Bold-73" transform="scale(0.015625)"/>
     </defs>
     <use xlink:href="#DejaVuSans-Bold-28"/>
     <use x="45.703125" xlink:href="#DejaVuSans-Bold-61"/>
     <use x="113.183594" xlink:href="#DejaVuSans-Bold-29"/>
     <use x="158.886719" xlink:href="#DejaVuSans-Bold-20"/>
     <use x="193.701172" xlink:href="#DejaVuSans-Bold-4d"/>
     <use x="293.212891" xlink:href="#DejaVuSans-Bold-50"/>
     <use x="366.503906" xlink:href="#DejaVuSans-Bold-53"/>
     <use x="438.525391" xlink:href="#DejaVuSans-Bold-43"/>
     <use x="514.164062" xlink:href="#DejaVuSans-Bold-2d"/>
     <use x="555.667969" xlink:href="#DejaVuSans-Bold-72"/>
     <use x="604.984375" xlink:href="#DejaVuSans-Bold-50"/>
     <use x="678.275391" xlink:href="#DejaVuSans-Bold-50"/>
     <use x="751.566406" xlink:href="#DejaVuSans-Bold-47"/>
     <use x="833.646484" xlink:href="#DejaVuSans-Bold-20"/>
     <use x="868.460938" xlink:href="#DejaVuSans-Bold-64"/>
     <use x="940.042969" xlink:href="#DejaVuSans-Bold-61"/>
     <use x="1007.523438" xlink:href="#DejaVuSans-Bold-74"/>
     <use x="1055.326172" xlink:href="#DejaVuSans-Bold-61"/>
     <use x="1122.806641" xlink:href="#DejaVuSans-Bold-73"/>
     <use x="1182.328125" xlink:href="#DejaVuSans-Bold-65"/>
     <use x="1250.150391" xlink:href="#DejaVuSans-Bold-74"/>
    </g>
   </g>
  </g>
  <g id="axes_2">
   <g id="patch_16">
    <path d="M 714.593807 639.825437 
L 1201.575625 639.825437 
L 1201.575625 41.073437 
L 714.593807 41.073437 
z
" style="fill:#ffffff;"/>
   </g>
   <g id="patch_17">
    <path clip-path="url(#p7322bbc728)" d="M 736.729344 639.825437 
L 774.675979 639.825437 
L 774.675979 111.514849 
L 736.729344 111.514849 
z
" style="fill:url(#h393e37d471);"/>
   </g>
   <g id="patch_18">
    <path clip-path="url(#p7322bbc728)" d="M 1040.302425 639.825437 
L 1078.249061 639.825437 
L 1078.249061 69.585438 
L 1040.302425 69.585438 
z
" style="fill:url(#h393e37d471);"/>
   </g>
   <g id="patch_19">
    <path clip-path="url(#p7322bbc728)" d="M 787.324858 639.825437 
L 825.271493 639.825437 
L 825.271493 572.738379 
L 787.324858 572.738379 
z
" style="fill:url(#hd7656a5978);"/>
   </g>
   <g id="patch_20">
    <path clip-path="url(#p7322bbc728)" d="M 1090.897939 639.825437 
L 1128.844574 639.825437 
L 1128.844574 589.510143 
L 1090.897939 589.510143 
z
" style="fill:url(#hd7656a5978);"/>
   </g>
   <g id="patch_21">
    <path clip-path="url(#p7322bbc728)" d="M 837.920371 639.825437 
L 875.867006 639.825437 
L 875.867006 564.352496 
L 837.920371 564.352496 
z
" style="fill:url(#h483eb80a30);"/>
   </g>
   <g id="patch_22">
    <path clip-path="url(#p7322bbc728)" d="M 1141.493453 639.825437 
L 1179.440088 639.825437 
L 1179.440088 606.281908 
L 1141.493453 606.281908 
z
" style="fill:url(#h483eb80a30);"/>
   </g>
   <g id="matplotlib.axis_3">
    <g id="xtick_4">
     <g id="line2d_9">
      <g>
       <use style="stroke:#000000;stroke-width:0.8;" x="806.298175" xlink:href="#m4b1d7c3558" y="639.825437"/>
      </g>
     </g>
     <g id="text_11">
      <!-- Tx from  -->
      <g transform="translate(747.733382 768.705235)rotate(-45)scale(0.35 -0.35)">
       <use xlink:href="#DejaVuSans-54"/>
       <use x="61.083984" xlink:href="#DejaVuSans-78"/>
       <use x="120.263672" xlink:href="#DejaVuSans-20"/>
       <use x="152.050781" xlink:href="#DejaVuSans-66"/>
       <use x="187.255859" xlink:href="#DejaVuSans-72"/>
       <use x="226.119141" xlink:href="#DejaVuSans-6f"/>
       <use x="287.300781" xlink:href="#DejaVuSans-6d"/>
       <use x="384.712891" xlink:href="#DejaVuSans-20"/>
      </g>
      <!--  person -->
      <g transform="translate(780.634121 791.23084)rotate(-45)scale(0.35 -0.35)">
       <use xlink:href="#DejaVuSans-20"/>
       <use x="31.787109" xlink:href="#DejaVuSans-70"/>
       <use x="95.263672" xlink:href="#DejaVuSans-65"/>
       <use x="156.787109" xlink:href="#DejaVuSans-72"/>
       <use x="197.900391" xlink:href="#DejaVuSans-73"/>
       <use x="250" xlink:href="#DejaVuSans-6f"/>
       <use x="311.181641" xlink:href="#DejaVuSans-6e"/>
      </g>
     </g>
    </g>
    <g id="xtick_5">
     <g id="line2d_10">
      <g>
       <use style="stroke:#000000;stroke-width:0.8;" x="1109.871257" xlink:href="#m4b1d7c3558" y="639.825437"/>
      </g>
     </g>
     <g id="text_12">
      <!-- Tx from  -->
      <g transform="translate(1051.306463 768.705235)rotate(-45)scale(0.35 -0.35)">
       <use xlink:href="#DejaVuSans-54"/>
       <use x="61.083984" xlink:href="#DejaVuSans-78"/>
       <use x="120.263672" xlink:href="#DejaVuSans-20"/>
       <use x="152.050781" xlink:href="#DejaVuSans-66"/>
       <use x="187.255859" xlink:href="#DejaVuSans-72"/>
       <use x="226.119141" xlink:href="#DejaVuSans-6f"/>
       <use x="287.300781" xlink:href="#DejaVuSans-6d"/>
       <use x="384.712891" xlink:href="#DejaVuSans-20"/>
      </g>
      <!--  MTL -->
      <g transform="translate(1101.494582 773.94346)rotate(-45)scale(0.35 -0.35)">
       <use xlink:href="#DejaVuSans-20"/>
       <use x="31.787109" xlink:href="#DejaVuSans-4d"/>
       <use x="118.066406" xlink:href="#DejaVuSans-54"/>
       <use x="179.150391" xlink:href="#DejaVuSans-4c"/>
      </g>
     </g>
    </g>
   </g>
   <g id="matplotlib.axis_4">
    <g id="ytick_6">
     <g id="line2d_11">
      <g>
       <use style="stroke:#000000;stroke-width:0.8;" x="714.593807" xlink:href="#m56b27bc543" y="639.825437"/>
      </g>
     </g>
     <g id="text_13">
      <!-- 0 -->
      <g transform="translate(675.781307 658.821531)scale(0.5 -0.5)">
       <use xlink:href="#DejaVuSans-30"/>
      </g>
     </g>
    </g>
    <g id="ytick_7">
     <g id="line2d_12">
      <g>
       <use style="stroke:#000000;stroke-width:0.8;" x="714.593807" xlink:href="#m56b27bc543" y="519.068732"/>
      </g>
     </g>
     <g id="text_14">
      <!-- 20 -->
      <g transform="translate(643.968807 538.064825)scale(0.5 -0.5)">
       <use xlink:href="#DejaVuSans-32"/>
       <use x="63.623047" xlink:href="#DejaVuSans-30"/>
      </g>
     </g>
    </g>
    <g id="ytick_8">
     <g id="line2d_13">
      <g>
       <use style="stroke:#000000;stroke-width:0.8;" x="714.593807" xlink:href="#m56b27bc543" y="398.312026"/>
      </g>
     </g>
     <g id="text_15">
      <!-- 40 -->
      <g transform="translate(643.968807 417.308119)scale(0.5 -0.5)">
       <use xlink:href="#DejaVuSans-34"/>
       <use x="63.623047" xlink:href="#DejaVuSans-30"/>
      </g>
     </g>
    </g>
    <g id="ytick_9">
     <g id="line2d_14">
      <g>
       <use style="stroke:#000000;stroke-width:0.8;" x="714.593807" xlink:href="#m56b27bc543" y="277.55532"/>
      </g>
     </g>
     <g id="text_16">
      <!-- 60 -->
      <g transform="translate(643.968807 296.551414)scale(0.5 -0.5)">
       <use xlink:href="#DejaVuSans-36"/>
       <use x="63.623047" xlink:href="#DejaVuSans-30"/>
      </g>
     </g>
    </g>
    <g id="ytick_10">
     <g id="line2d_15">
      <g>
       <use style="stroke:#000000;stroke-width:0.8;" x="714.593807" xlink:href="#m56b27bc543" y="156.798614"/>
      </g>
     </g>
     <g id="text_17">
      <!-- 80 -->
      <g transform="translate(643.968807 175.794708)scale(0.5 -0.5)">
       <use xlink:href="#DejaVuSans-38"/>
       <use x="63.623047" xlink:href="#DejaVuSans-30"/>
      </g>
     </g>
    </g>
   </g>
   <g id="patch_23">
    <path d="M 714.593807 639.825437 
L 714.593807 41.073437 
" style="fill:none;stroke:#000000;stroke-linecap:square;stroke-linejoin:miter;stroke-width:0.8;"/>
   </g>
   <g id="patch_24">
    <path d="M 1201.575625 639.825437 
L 1201.575625 41.073437 
" style="fill:none;stroke:#000000;stroke-linecap:square;stroke-linejoin:miter;stroke-width:0.8;"/>
   </g>
   <g id="patch_25">
    <path d="M 714.593807 639.825437 
L 1201.575625 639.825437 
" style="fill:none;stroke:#000000;stroke-linecap:square;stroke-linejoin:miter;stroke-width:0.8;"/>
   </g>
   <g id="patch_26">
    <path d="M 714.593807 41.073437 
L 1201.575625 41.073437 
" style="fill:none;stroke:#000000;stroke-linecap:square;stroke-linejoin:miter;stroke-width:0.8;"/>
   </g>
   <g id="text_18">
    <!-- (b) UBFC-RPPG dataset -->
    <g transform="translate(728.722607 33.794531)scale(0.35 -0.35)">
     <defs>
      <path d="M 2400 722 
Q 2759 722 2948 984 
Q 3138 1247 3138 1747 
Q 3138 2247 2948 2509 
Q 2759 2772 2400 2772 
Q 2041 2772 1848 2508 
Q 1656 2244 1656 1747 
Q 1656 1250 1848 986 
Q 2041 722 2400 722 
z
M 1656 2988 
Q 1888 3294 2169 3439 
Q 2450 3584 2816 3584 
Q 3463 3584 3878 3070 
Q 4294 2556 4294 1747 
Q 4294 938 3878 423 
Q 3463 -91 2816 -91 
Q 2450 -91 2169 54 
Q 1888 200 1656 506 
L 1656 0 
L 538 0 
L 538 4863 
L 1656 4863 
L 1656 2988 
z
" id="DejaVuSans-Bold-62" transform="scale(0.015625)"/>
      <path d="M 588 4666 
L 1791 4666 
L 1791 1869 
Q 1791 1291 1980 1042 
Q 2169 794 2597 794 
Q 3028 794 3217 1042 
Q 3406 1291 3406 1869 
L 3406 4666 
L 4609 4666 
L 4609 1869 
Q 4609 878 4112 393 
Q 3616 -91 2597 -91 
Q 1581 -91 1084 393 
Q 588 878 588 1869 
L 588 4666 
z
" id="DejaVuSans-Bold-55" transform="scale(0.015625)"/>
      <path d="M 2456 2859 
Q 2741 2859 2887 2984 
Q 3034 3109 3034 3353 
Q 3034 3594 2887 3720 
Q 2741 3847 2456 3847 
L 1791 3847 
L 1791 2859 
L 2456 2859 
z
M 2497 819 
Q 2859 819 3042 972 
Q 3225 1125 3225 1434 
Q 3225 1738 3044 1889 
Q 2863 2041 2497 2041 
L 1791 2041 
L 1791 819 
L 2497 819 
z
M 3616 2497 
Q 4003 2384 4215 2081 
Q 4428 1778 4428 1338 
Q 4428 663 3972 331 
Q 3516 0 2584 0 
L 588 0 
L 588 4666 
L 2394 4666 
Q 3366 4666 3802 4372 
Q 4238 4078 4238 3431 
Q 4238 3091 4078 2852 
Q 3919 2613 3616 2497 
z
" id="DejaVuSans-Bold-42" transform="scale(0.015625)"/>
      <path d="M 588 4666 
L 3834 4666 
L 3834 3756 
L 1791 3756 
L 1791 2888 
L 3713 2888 
L 3713 1978 
L 1791 1978 
L 1791 0 
L 588 0 
L 588 4666 
z
" id="DejaVuSans-Bold-46" transform="scale(0.015625)"/>
      <path d="M 2297 2597 
Q 2675 2597 2839 2737 
Q 3003 2878 3003 3200 
Q 3003 3519 2839 3656 
Q 2675 3794 2297 3794 
L 1791 3794 
L 1791 2597 
L 2297 2597 
z
M 1791 1766 
L 1791 0 
L 588 0 
L 588 4666 
L 2425 4666 
Q 3347 4666 3776 4356 
Q 4206 4047 4206 3378 
Q 4206 2916 3982 2619 
Q 3759 2322 3309 2181 
Q 3556 2125 3751 1926 
Q 3947 1728 4147 1325 
L 4800 0 
L 3519 0 
L 2950 1159 
Q 2778 1509 2601 1637 
Q 2425 1766 2131 1766 
L 1791 1766 
z
" id="DejaVuSans-Bold-52" transform="scale(0.015625)"/>
     </defs>
     <use xlink:href="#DejaVuSans-Bold-28"/>
     <use x="45.703125" xlink:href="#DejaVuSans-Bold-62"/>
     <use x="117.285156" xlink:href="#DejaVuSans-Bold-29"/>
     <use x="162.988281" xlink:href="#DejaVuSans-Bold-20"/>
     <use x="197.802734" xlink:href="#DejaVuSans-Bold-55"/>
     <use x="279.003906" xlink:href="#DejaVuSans-Bold-42"/>
     <use x="355.224609" xlink:href="#DejaVuSans-Bold-46"/>
     <use x="423.535156" xlink:href="#DejaVuSans-Bold-43"/>
     <use x="499.173828" xlink:href="#DejaVuSans-Bold-2d"/>
     <use x="540.677734" xlink:href="#DejaVuSans-Bold-52"/>
     <use x="617.679688" xlink:href="#DejaVuSans-Bold-50"/>
     <use x="690.970703" xlink:href="#DejaVuSans-Bold-50"/>
     <use x="764.261719" xlink:href="#DejaVuSans-Bold-47"/>
     <use x="846.341797" xlink:href="#DejaVuSans-Bold-20"/>
     <use x="881.15625" xlink:href="#DejaVuSans-Bold-64"/>
     <use x="952.738281" xlink:href="#DejaVuSans-Bold-61"/>
     <use x="1020.21875" xlink:href="#DejaVuSans-Bold-74"/>
     <use x="1068.021484" xlink:href="#DejaVuSans-Bold-61"/>
     <use x="1135.501953" xlink:href="#DejaVuSans-Bold-73"/>
     <use x="1195.023438" xlink:href="#DejaVuSans-Bold-65"/>
     <use x="1262.845703" xlink:href="#DejaVuSans-Bold-74"/>
    </g>
   </g>
  </g>
 </g>
 <defs>
  <clipPath id="p741c5e5acb">
   <rect height="598.752" width="486.981818" x="130.215625" y="41.073437"/>
  </clipPath>
  <clipPath id="p7322bbc728">
   <rect height="598.752" width="486.981818" x="714.593807" y="41.073437"/>
  </clipPath>
 </defs>
 <defs>
  <pattern height="72" id="h393e37d471" patternUnits="userSpaceOnUse" width="72" x="0" y="0">
   <rect fill="#1f77b4" height="73" width="73" x="0" y="0"/>
   <path d="M -36 36 
L 36 -36 
M -24 48 
L 48 -24 
M -12 60 
L 60 -12 
M 0 72 
L 72 0 
M 12 84 
L 84 12 
M 24 96 
L 96 24 
M 36 108 
L 108 36 
" style="fill:#000000;stroke:#000000;stroke-linecap:butt;stroke-linejoin:miter;stroke-width:1.0;"/>
  </pattern>
  <pattern height="72" id="hd7656a5978" patternUnits="userSpaceOnUse" width="72" x="0" y="0">
   <rect fill="#ff7f0e" height="73" width="73" x="0" y="0"/>
   <path d="M 0 66 
L 72 66 
M 0 54 
L 72 54 
M 0 42 
L 72 42 
M 0 30 
L 72 30 
M 0 18 
L 72 18 
M 0 6 
L 72 6 
" style="fill:#000000;stroke:#000000;stroke-linecap:butt;stroke-linejoin:miter;stroke-width:1.0;"/>
  </pattern>
  <pattern height="72" id="h483eb80a30" patternUnits="userSpaceOnUse" width="72" x="0" y="0">
   <rect fill="#2ca02c" height="73" width="73" x="0" y="0"/>
   <path d="M -36 36 
L 36 -36 
M -24 48 
L 48 -24 
M -12 60 
L 60 -12 
M 0 72 
L 72 0 
M 12 84 
L 84 12 
M 24 96 
L 96 24 
M 36 108 
L 108 36 
M -36 36 
L 36 108 
M -24 24 
L 48 96 
M -12 12 
L 60 84 
M 0 0 
L 72 72 
M 12 -12 
L 84 60 
M 24 -24 
L 96 48 
M 36 -36 
L 108 36 
" style="fill:#000000;stroke:#000000;stroke-linecap:butt;stroke-linejoin:miter;stroke-width:1.0;"/>
  </pattern>
 </defs>
</svg>
